<svg width="18" height="18" viewBox="0 0 18 18" fill="none" xmlns="http://www.w3.org/2000/svg">
<path d="M1.9286 1.92376H3.85716V0.641266C3.85716 0.287099 4.14498 0 4.50003 0C4.85508 0 5.1429 0.287099 5.1429 0.641266V1.92376H12.8572V0.641266C12.8572 0.287099 13.145 0 13.5 0C13.855 0 14.1429 0.287099 14.1429 0.641266V1.92376H16.0714C17.1366 1.92376 18 2.78506 18 3.84752V16.0314C18 17.0938 17.1366 17.9551 16.0714 17.9551H1.9286C0.863478 17.9551 2.86102e-05 17.0938 2.86102e-05 16.0314V3.84752C2.86102e-05 2.78506 0.863478 1.92376 1.9286 1.92376ZM1.28577 16.0314C1.28577 16.3855 1.57358 16.6726 1.92863 16.6726H16.0714C16.4265 16.6726 16.7143 16.3855 16.7143 16.0314V7.69504H1.28577V16.0314ZM1.28577 6.41255H16.7143V3.84752C16.7143 3.49336 16.4265 3.20626 16.0714 3.20626H14.1429V4.48875C14.1429 4.84292 13.8551 5.13002 13.5 5.13002C13.1449 5.13002 12.8571 4.84292 12.8571 4.48875V3.20626H5.14286V4.48875C5.14286 4.84292 4.85505 5.13002 4.49999 5.13002C4.14494 5.13002 3.85713 4.84292 3.85713 4.48875V3.20626H1.92856C1.57351 3.20626 1.28569 3.49336 1.28569 3.84752V6.41255H1.28577Z" fill="#CCC9C9"/>
<path d="M12.8571 8.97729H14.1428C14.4978 8.97729 14.7856 9.26447 14.7856 9.61873C14.7856 9.97298 14.4978 10.2602 14.1428 10.2602H12.8571C12.502 10.2602 12.2142 9.97298 12.2142 9.61873C12.2142 9.26447 12.502 8.97729 12.8571 8.97729Z" fill="#CCC9C9"/>
<path d="M8.35754 8.97729H9.64326C9.99831 8.97729 10.2861 9.26447 10.2861 9.61873C10.2861 9.97298 9.99831 10.2602 9.64326 10.2602H8.35754C8.00248 10.2602 7.71466 9.97298 7.71466 9.61873C7.71466 9.26447 8.00248 8.97729 8.35754 8.97729Z" fill="#CCC9C9"/>
<path d="M3.85756 8.97729H5.14326C5.49832 8.97729 5.78613 9.26447 5.78613 9.61873C5.78613 9.97298 5.49832 10.2602 5.14326 10.2602H3.85756C3.50251 10.2602 3.21469 9.97298 3.21469 9.61873C3.21473 9.26447 3.50255 8.97729 3.85756 8.97729Z" fill="#CCC9C9"/>
<path d="M12.8571 11.5426H14.1428C14.4978 11.5426 14.7856 11.8297 14.7856 12.1838C14.7856 12.5379 14.4978 12.825 14.1428 12.825H12.8571C12.502 12.825 12.2142 12.5379 12.2142 12.1838C12.2142 11.8297 12.502 11.5426 12.8571 11.5426Z" fill="#CCC9C9"/>
<path d="M8.35754 11.5426H9.64326C9.99831 11.5426 10.2861 11.8297 10.2861 12.1838C10.2861 12.5379 9.99831 12.825 9.64326 12.825H8.35754C8.00248 12.825 7.71466 12.5379 7.71466 12.1838C7.71466 11.8297 8.00248 11.5426 8.35754 11.5426Z" fill="#CCC9C9"/>
<path d="M3.85756 11.5426H5.14326C5.49832 11.5426 5.78613 11.8297 5.78613 12.1838C5.78613 12.5379 5.49832 12.825 5.14326 12.825H3.85756C3.50251 12.825 3.21469 12.5379 3.21469 12.1838C3.21473 11.8297 3.50255 11.5426 3.85756 11.5426Z" fill="#CCC9C9"/>
<path d="M12.8571 14.1078H14.1428C14.4978 14.1078 14.7856 14.3949 14.7856 14.749C14.7856 15.1032 14.4978 15.3902 14.1428 15.3902H12.8571C12.502 15.3902 12.2142 15.1031 12.2142 14.749C12.2142 14.3948 12.502 14.1078 12.8571 14.1078Z" fill="#CCC9C9"/>
<path d="M8.35754 14.1078H9.64326C9.99831 14.1078 10.2861 14.3949 10.2861 14.749C10.2861 15.1031 9.99831 15.3902 9.64326 15.3902H8.35754C8.00248 15.3902 7.71466 15.1031 7.71466 14.749C7.71466 14.3949 8.00248 14.1078 8.35754 14.1078Z" fill="#CCC9C9"/>
<path d="M3.85756 14.1078H5.14326C5.49832 14.1078 5.78613 14.3949 5.78613 14.749C5.78613 15.1031 5.49832 15.3902 5.14326 15.3902H3.85756C3.50251 15.3902 3.21469 15.1031 3.21469 14.749C3.21469 14.3949 3.50255 14.1078 3.85756 14.1078Z" fill="#CCC9C9"/>
</svg>
