<svg width="12" height="12" viewBox="0 0 12 12" fill="none" xmlns="http://www.w3.org/2000/svg">
<path fill-rule="evenodd" clip-rule="evenodd" d="M11.0329 10.7637C11.4168 10.3666 11.4061 9.73353 11.009 9.34966L7.41437 5.87442L10.8898 2.2796C11.2737 1.88254 11.263 1.24946 10.8659 0.865588C10.4688 0.481714 9.83577 0.492406 9.4519 0.889468L5.97648 4.48429L2.38166 1.00887C1.98459 0.624995 1.35152 0.635687 0.967644 1.03275C0.58377 1.42981 0.594463 2.06289 0.991525 2.44676L4.58635 5.92218L1.11111 9.51682C0.727233 9.91389 0.737924 10.547 1.13499 10.9308C1.53205 11.3147 2.16513 11.304 2.549 10.907L6.02424 7.31231L9.61888 10.7875C10.0159 11.1714 10.649 11.1607 11.0329 10.7637Z" fill="#005A8F"/>
</svg>
