<svg width="14" height="7" viewBox="0 0 14 7" fill="none" xmlns="http://www.w3.org/2000/svg">
<path fill-rule="evenodd" clip-rule="evenodd" d="M0.293723 0.256949C0.386594 0.1755 0.496921 0.110878 0.618385 0.0667866C0.739849 0.022695 0.870063 0 1.00157 0C1.13307 0 1.26329 0.022695 1.38475 0.0667866C1.50622 0.110878 1.61654 0.1755 1.70941 0.256949L7.00026 4.88713L12.2911 0.256949C12.4788 0.0927206 12.7335 0.000457915 12.999 0.000457917C13.2644 0.000457918 13.5191 0.0927206 13.7068 0.256949C13.8945 0.421177 14 0.643919 14 0.876172C14 1.10843 13.8945 1.33117 13.7068 1.4954L7.70811 6.74305C7.61524 6.8245 7.50491 6.88912 7.38345 6.93321C7.26198 6.9773 7.13177 7 7.00026 7C6.86876 7 6.73854 6.9773 6.61708 6.93321C6.49561 6.88912 6.38529 6.8245 6.29242 6.74305L0.293723 1.4954C0.200617 1.41415 0.126747 1.31764 0.076345 1.21138C0.0259431 1.10512 0 0.991214 0 0.876172C0 0.761131 0.0259431 0.64722 0.076345 0.540963C0.126747 0.434707 0.200617 0.338192 0.293723 0.256949Z" fill="black"/>
</svg>
