<svg width="46" height="43" viewBox="0 0 46 43" fill="none" xmlns="http://www.w3.org/2000/svg">
<path d="M44.4771 17.1568L44.4771 17.1567C44.0366 14.767 41.7188 13.2054 39.3385 13.6949L39.3385 13.6949L30.8373 15.4433L21.1415 2.63757L20.6763 2.02313L19.9184 2.16282L15.2478 3.02364L13.6919 3.31042L14.3309 4.75779L20.0297 17.6661L12.6464 19.1846L9.95992 16.601L9.49765 16.1565L8.86691 16.2727L4.64543 17.0507L2.68967 17.4111L3.8625 19.0172L7.48277 23.9747L5.86763 29.8971L5.34439 31.8157L7.30015 31.4552L11.5216 30.6772L12.1524 30.561L12.4258 29.9808L14.0148 26.6093L21.4543 25.396L20.7315 39.4878L20.6505 41.0679L22.2064 40.7811L26.8771 39.9203L27.635 39.7806L27.8506 39.0407L32.3443 23.6199L40.9101 22.2229C43.3086 21.8318 44.9174 19.5465 44.4771 17.1568Z" stroke="#005A8F" stroke-width="2.5"/>
</svg>
