<svg width="72" height="72" viewBox="0 0 72 72" fill="none" xmlns="http://www.w3.org/2000/svg">
<g opacity="0.2">
<path d="M26.32 26.5246C26.9024 26.5246 27.3744 26.0526 27.3744 25.4701V24.246C29.7402 23.7818 31.122 21.8311 31.4284 20.0089C31.8222 17.6662 30.5967 15.6291 28.3062 14.8195C28.0001 14.7112 27.6868 14.5977 27.3745 14.4796V9.49352C28.1601 9.68166 28.6282 10.0789 28.6689 10.1145C29.0972 10.5024 29.759 10.4734 30.1516 10.0477C30.5465 9.61965 30.5195 8.95258 30.0914 8.5576C30.0315 8.50234 29.0239 7.59469 27.3745 7.34707V6.32862C27.3745 5.74635 26.9025 5.27417 26.3201 5.27417C25.7378 5.27417 25.2656 5.7462 25.2656 6.32862V7.42793C25.1091 7.46238 24.9504 7.50203 24.7881 7.55096C23.2796 8.00528 22.1526 9.29624 21.8467 10.9199C21.5677 12.4002 22.042 13.8277 23.0843 14.6454C23.6368 15.0786 24.3241 15.4754 25.2656 15.8946V22.2171C24.4519 22.1569 23.8865 21.9578 22.9624 21.3533C22.4749 21.0344 21.8214 21.1711 21.5027 21.6584C21.184 22.1458 21.3205 22.7994 21.8079 23.1181C23.1559 23.9999 24.0766 24.2628 25.2656 24.3298V25.4701C25.2655 26.0526 25.7375 26.5246 26.32 26.5246ZM27.3744 16.7259C27.4505 16.7532 27.525 16.7802 27.6033 16.8079C29.5518 17.4966 29.4318 19.1645 29.3486 19.6593C29.1863 20.6247 28.5141 21.6479 27.3744 22.0557V16.7259ZM24.3857 12.9862C23.9653 12.6563 23.7863 12.0143 23.919 11.3105C24.0378 10.68 24.454 9.92224 25.2656 9.61585V13.5485C24.9344 13.3688 24.6349 13.1816 24.3857 12.9862Z" fill="white"/>
<path d="M37.2034 17.9904H45.6971C46.2793 17.9904 46.7515 17.5183 46.7515 16.9359C46.7515 16.3536 46.2795 15.8815 45.6971 15.8815H37.2034C36.621 15.8815 36.1489 16.3535 36.1489 16.9359C36.1489 17.5183 36.6211 17.9904 37.2034 17.9904Z" fill="white"/>
<path d="M60.0409 15.8815H51.5471C50.9649 15.8815 50.4927 16.3535 50.4927 16.9359C50.4927 17.5183 50.9647 17.9904 51.5471 17.9904H60.0409C60.6234 17.9904 61.0954 17.5183 61.0954 16.9359C61.0954 16.3536 60.6232 15.8815 60.0409 15.8815Z" fill="white"/>
<path d="M37.2034 23.5951H45.6971C46.2793 23.5951 46.7515 23.1231 46.7515 22.5407C46.7515 21.9582 46.2795 21.4862 45.6971 21.4862H37.2034C36.621 21.4862 36.1489 21.9582 36.1489 22.5407C36.1489 23.1231 36.6211 23.5951 37.2034 23.5951Z" fill="white"/>
<path d="M60.0409 21.4862H51.5471C50.9649 21.4862 50.4927 21.9582 50.4927 22.5407C50.4927 23.1229 50.9647 23.5951 51.5471 23.5951H60.0409C60.6234 23.5951 61.0954 23.1231 61.0954 22.5407C61.0954 21.9584 60.6232 21.4862 60.0409 21.4862Z" fill="white"/>
<path d="M37.2034 29.1998H45.6971C46.2793 29.1998 46.7515 28.7278 46.7515 28.1454C46.7515 27.5631 46.2795 27.0909 45.6971 27.0909H37.2034C36.621 27.0909 36.1489 27.563 36.1489 28.1454C36.1489 28.7278 36.6211 29.1998 37.2034 29.1998Z" fill="white"/>
<path d="M60.0409 27.0909H51.5471C50.9649 27.0909 50.4927 27.563 50.4927 28.1454C50.4927 28.7278 50.9647 29.1998 51.5471 29.1998H60.0409C60.6234 29.1998 61.0954 28.7278 61.0954 28.1454C61.0954 27.5631 60.6232 27.0909 60.0409 27.0909Z" fill="white"/>
<path d="M37.2034 34.8046H45.6971C46.2793 34.8046 46.7515 34.3325 46.7515 33.7501C46.7515 33.1677 46.2795 32.6957 45.6971 32.6957H37.2034C36.621 32.6957 36.1489 33.1677 36.1489 33.7501C36.1489 34.3325 36.6211 34.8046 37.2034 34.8046Z" fill="white"/>
<path d="M60.0409 32.6957H51.5471C50.9649 32.6957 50.4927 33.1677 50.4927 33.7501C50.4927 34.3325 50.9647 34.8046 51.5471 34.8046H60.0409C60.6234 34.8046 61.0954 34.3325 61.0954 33.7501C61.0954 33.1677 60.6232 32.6957 60.0409 32.6957Z" fill="white"/>
<path d="M37.2034 40.4092H60.0408C60.6232 40.4092 61.0952 39.9372 61.0952 39.3547C61.0952 38.7723 60.6232 38.3003 60.0408 38.3003H37.2034C36.621 38.3003 36.1489 38.7723 36.1489 39.3547C36.1489 39.9372 36.6211 40.4092 37.2034 40.4092Z" fill="white"/>
<path d="M71.9699 51.7434V50.56C71.9699 48.5317 70.5965 46.8192 68.7313 46.3005V14.8017C68.7313 14.2193 68.2593 13.7472 67.6769 13.7472C67.0946 13.7472 66.6224 14.2193 66.6224 14.8017V46.1383H51.989C49.551 46.1383 47.5675 48.1218 47.5675 50.5599V51.7433C47.5675 53.0908 48.1741 54.2988 49.1279 55.1104C48.1741 55.922 47.5675 57.1299 47.5675 58.4773V59.6607C47.5675 61.0084 48.1741 62.2162 49.1279 63.0278C48.1741 63.8394 47.5675 65.0473 47.5675 66.3949V67.5783C47.5675 68.4256 47.8075 69.2177 48.2225 69.891H31.2365C31.38 69.5216 31.4594 69.1207 31.4594 68.7012V33.0001C31.4594 31.1813 29.9797 29.7015 28.1608 29.7015H15.8028V2.1089H66.6224V9.92075C66.6224 10.5032 67.0944 10.9752 67.6769 10.9752C68.2593 10.9752 68.7313 10.5032 68.7313 9.92075V1.80462C68.7313 0.809504 67.9218 0 66.9267 0H15.4985C14.5034 0 13.6939 0.809504 13.6939 1.80462V29.7015H3.3284C1.50959 29.7015 0.0297852 31.1812 0.0297852 33.0001V68.7014C0.0297852 70.5202 1.50945 72 3.3284 72H51.989H67.5485C69.9865 72 71.97 70.0165 71.97 67.5785V66.3951C71.97 65.0476 71.3634 63.8396 70.4097 63.028C71.3634 62.2164 71.97 61.0085 71.97 59.6609V58.4775C71.97 57.13 71.3634 55.9221 70.4097 55.1105C71.3633 54.2988 71.9699 53.0909 71.9699 51.7434ZM29.3505 68.7015C29.3505 69.3575 28.8169 69.8912 28.1608 69.8912H3.3284C2.67245 69.8912 2.13869 69.3576 2.13869 68.7015V33.0001C2.13869 32.3442 2.67231 31.8104 3.3284 31.8104H28.1608C28.8167 31.8104 29.3505 32.344 29.3505 33.0001V68.7015ZM69.861 67.5785C69.861 68.8537 68.8235 69.8911 67.5483 69.8911H51.989C50.7138 69.8911 49.6764 68.8537 49.6764 67.5785V66.3951C49.6764 65.1199 50.7138 64.0824 51.989 64.0824H67.5485C68.8237 64.0824 69.8611 65.1199 69.8611 66.3951V67.5785H69.861ZM69.861 59.6609C69.861 60.9361 68.8235 61.9735 67.5483 61.9735H51.989C50.7138 61.9735 49.6764 60.9361 49.6764 59.6609V58.4775C49.6764 57.2023 50.7138 56.165 51.989 56.165H67.5485C68.8237 56.165 69.8611 57.2024 69.8611 58.4775V59.6609H69.861ZM69.861 51.7434C69.861 53.0186 68.8235 54.0561 67.5483 54.0561H51.989C50.7138 54.0561 49.6764 53.0186 49.6764 51.7434V50.56C49.6764 49.2848 50.7138 48.2474 51.989 48.2474H67.5485C68.8237 48.2474 69.8611 49.2848 69.8611 50.56V51.7434H69.861Z" fill="white"/>
<path d="M24.8912 33.7555H13.6793C13.097 33.7555 12.6248 34.2275 12.6248 34.8099C12.6248 35.3924 13.0968 35.8644 13.6793 35.8644H24.8582V42.2028H6.6315V35.8644H8.87975C9.46202 35.8644 9.9342 35.3924 9.9342 34.8099C9.9342 34.2275 9.46216 33.7555 8.87975 33.7555H6.59832C5.45373 33.7555 4.52246 34.6868 4.52246 35.8314V42.236C4.52246 43.3805 5.45373 44.3118 6.59832 44.3118H24.8912C26.0358 44.3118 26.9671 43.3805 26.9671 42.236V35.8314C26.9671 34.6868 26.0358 33.7555 24.8912 33.7555Z" fill="white"/>
<path d="M12.8269 45.8367H6.59832C5.45373 45.8367 4.52246 46.7678 4.52246 47.9124V54.1411C4.52246 55.2857 5.45373 56.2169 6.59832 56.2169H12.8269C13.9715 56.2169 14.9027 55.2857 14.9027 54.1411V47.9124C14.9027 46.7678 13.9716 45.8367 12.8269 45.8367ZM12.7938 54.1079H6.6315V47.9454H12.794V54.1079H12.7938Z" fill="white"/>
<path d="M24.8913 45.8367H18.6628C17.5182 45.8367 16.5869 46.7678 16.5869 47.9124V54.1411C16.5869 55.2857 17.5182 56.2169 18.6628 56.2169H24.8913C26.0359 56.2169 26.9672 55.2857 26.9672 54.1411V47.9124C26.9672 46.7678 26.0359 45.8367 24.8913 45.8367ZM24.8583 54.1079H18.6958V47.9454H24.8583V54.1079Z" fill="white"/>
<path d="M12.8269 57.5657H6.59832C5.45373 57.5657 4.52246 58.4969 4.52246 59.6415V65.8702C4.52246 67.0148 5.45373 67.9461 6.59832 67.9461H12.8269C13.9715 67.9461 14.9027 67.0148 14.9027 65.8702V59.6415C14.9027 58.4969 13.9716 57.5657 12.8269 57.5657ZM12.7938 65.837H6.6315V59.6746H12.794V65.837H12.7938Z" fill="white"/>
<path d="M24.8913 57.5657H18.6628C17.5182 57.5657 16.5869 58.4969 16.5869 59.6415V65.8702C16.5869 67.0148 17.5182 67.9461 18.6628 67.9461H24.8913C26.0359 67.9461 26.9672 67.0148 26.9672 65.8702V59.6415C26.9672 58.4969 26.0359 57.5657 24.8913 57.5657ZM24.8583 65.837H18.6958V59.6746H24.8583V65.837Z" fill="white"/>
</g>
</svg>
