<svg width="34" height="34" viewBox="0 0 34 34" fill="none" xmlns="http://www.w3.org/2000/svg">
<path d="M33.0277 4.64813C32.5275 4.14709 31.716 4.14623 31.2158 4.646L15.8432 19.978L10.2968 13.9541C9.81759 13.4339 9.00731 13.4001 8.48622 13.8793C7.96552 14.3586 7.93219 15.1693 8.41144 15.69L14.8612 22.6946C15.0974 22.9513 15.428 23.1004 15.7766 23.1076C15.7859 23.108 15.795 23.108 15.8039 23.108C16.1427 23.108 16.4685 22.9735 16.7086 22.7343L33.0252 6.46042C33.5266 5.96071 33.5275 5.14916 33.0277 4.64813Z" fill="#005A8F"/>
<path d="M32.7186 15.7186C32.0108 15.7186 31.4372 16.2922 31.4372 17C31.4372 24.961 24.961 31.4372 17 31.4372C9.03948 31.4372 2.56282 24.961 2.56282 17C2.56282 9.03948 9.03948 2.56282 17 2.56282C17.7078 2.56282 18.2814 1.9892 18.2814 1.28144C18.2814 0.573617 17.7078 0 17 0C7.62609 0 0 7.62609 0 17C0 26.3735 7.62609 34 17 34C26.3735 34 34 26.3735 34 17C34 16.2922 33.4264 15.7186 32.7186 15.7186Z" fill="#005A8F"/>
</svg>
