<svg width="76" height="76" viewBox="0 0 76 76" fill="none" xmlns="http://www.w3.org/2000/svg">
<g opacity="0.2">
<path d="M70.4228 4.46914H46.1154C45.4992 4.46914 44.9999 4.96863 44.9999 5.58465C44.9999 6.20067 45.4992 6.70016 46.1154 6.70016H70.4226C72.2677 6.70016 73.769 8.20131 73.769 10.0465V49.0866H68.4211L68.4209 14.8203C68.4209 12.9751 66.9196 11.4739 65.0746 11.4739H10.9253C9.08007 11.4739 7.57892 12.9751 7.57892 14.8203V49.0866H2.23087V10.0464C2.23087 8.20116 3.73216 6.70001 5.57724 6.70001H41.6535C42.2697 6.70001 42.769 6.20052 42.769 5.5845C42.769 4.96849 42.2697 4.46899 41.6535 4.46899H5.57724C2.50191 4.46914 0 6.97106 0 10.0464V55.1488C0 58.2242 2.50191 60.7261 5.57724 60.7261H30.1037L28.9795 69.3H25.0159C24.3997 69.3 23.9004 69.7995 23.9004 70.4155C23.9004 71.0315 24.3997 71.531 25.0159 71.531H50.984C51.6001 71.531 52.0995 71.0315 52.0995 70.4155C52.0995 69.7995 51.6001 69.3 50.984 69.3H47.0205L45.8963 60.7261H57.7162C58.3324 60.7261 58.8317 60.2266 58.8317 59.6106C58.8317 58.9945 58.3324 58.495 57.7162 58.495H5.57724C3.73216 58.495 2.23087 56.9939 2.23087 55.1487V51.3174H73.769V55.1487C73.769 56.9939 72.2677 58.495 70.4226 58.495H62.178C61.5618 58.495 61.0624 58.9945 61.0624 59.6106C61.0624 60.2266 61.5618 60.7261 62.178 60.7261H70.4226C73.4979 60.7261 75.9999 58.2242 75.9999 55.1488V10.0464C76 6.97106 73.4981 4.46914 70.4228 4.46914ZM44.7705 69.3H31.2296L32.3539 60.7261H43.6461L44.7705 69.3ZM9.80979 14.8201C9.80979 14.205 10.3102 13.7046 10.9253 13.7046H65.0747C65.6898 13.7046 66.1902 14.205 66.1902 14.8201V20.3101H9.80979V14.8201ZM9.80979 22.5411H66.1902V49.0866H60.7672V44.1141C60.7672 43.4981 60.2679 42.9986 59.6517 42.9986H40.6702C40.0541 42.9986 39.5547 43.4981 39.5547 44.1141V49.0866H36.4451V44.1141C36.4451 43.4981 35.9458 42.9986 35.3296 42.9986H16.3483C15.7322 42.9986 15.2328 43.4981 15.2328 44.1141V49.0866H9.80979V22.5411ZM58.5362 49.0865H41.7858V45.2295H58.5362V49.0865ZM34.2143 49.0865H17.4638V45.2295H34.2143V49.0865Z" fill="white"/>
<path d="M14.0643 15.2081C13.1197 15.2081 12.3511 15.9767 12.3511 16.9215C12.3511 17.8663 13.1197 18.6348 14.0643 18.6348C15.009 18.6348 15.7776 17.8662 15.7776 16.9215C15.7778 15.9769 15.0091 15.2081 14.0643 15.2081Z" fill="white"/>
<path d="M19.5629 15.2081C18.6182 15.2081 17.8496 15.9767 17.8496 16.9215C17.8496 17.8663 18.6182 18.6348 19.5629 18.6348C20.5075 18.6348 21.2761 17.8662 21.2761 16.9215C21.2761 15.9769 20.5075 15.2081 19.5629 15.2081Z" fill="white"/>
<path d="M25.0609 15.2081C24.1163 15.2081 23.3477 15.9767 23.3477 16.9215C23.3477 17.8663 24.1163 18.6348 25.0609 18.6348C26.0057 18.6348 26.7743 17.8662 26.7743 16.9215C26.7743 15.9769 26.0057 15.2081 25.0609 15.2081Z" fill="white"/>
<path d="M16.3484 40.2758H24.4633C25.0795 40.2758 25.5789 39.7763 25.5789 39.1603C25.5789 38.5443 25.0795 38.0448 24.4633 38.0448H17.4638V28.2571H58.5339V38.0448H28.9251C28.3089 38.0448 27.8096 38.5443 27.8096 39.1603C27.8096 39.7763 28.3089 40.2758 28.9251 40.2758H59.6493C60.2654 40.2758 60.7648 39.7763 60.7648 39.1603V27.1418C60.7648 26.5257 60.2654 26.0262 59.6493 26.0262H16.3484C15.7323 26.0262 15.2329 26.5257 15.2329 27.1418V39.1604C15.2329 39.7765 15.7323 40.2758 16.3484 40.2758Z" fill="white"/>
</g>
</svg>
