<svg width="67" height="67" viewBox="0 0 67 67" fill="none" xmlns="http://www.w3.org/2000/svg">
<g opacity="0.2" clip-path="url(#clip0_76_296)">
<path d="M66.6858 23.0275L56.9831 16.1741V6.16348C56.8859 5.17183 56.1219 4.37592 55.135 4.2384H12.6288C11.642 4.37607 10.8779 5.17183 10.7806 6.16348V16.097L0.693033 23.0274C0.293456 23.3174 0.0403851 23.7674 0 24.2594V60.8364C0.131178 61.8403 0.921194 62.6305 1.92507 62.7615H65.8387C66.6857 62.7615 66.9938 61.7604 66.9938 60.8364V24.2596C66.9938 23.7975 67.0707 23.3354 66.6858 23.0275ZM56.9831 19.8703L63.6056 24.4134L56.9831 29.4187V19.8703ZM13.8608 7.31858H53.903V31.806L33.8818 46.8988L13.8607 31.806V7.31858H13.8608ZM10.7806 19.7933V29.4959L4.1582 24.4136L10.7806 19.7933ZM3.08018 27.5707L24.6414 43.8956L3.08018 58.4494V27.5707ZM6.77645 59.6815L27.2595 45.8978L32.7269 50.0559C33.0364 50.2952 33.4138 50.43 33.8049 50.4409C34.1129 50.4409 34.2669 50.2869 34.5748 50.0559L40.2731 45.6666L60.9873 59.6815H6.77645ZM63.9136 57.9104L42.8144 43.7416L63.9136 27.5707V57.9104Z" fill="white"/>
<path d="M21.5611 17.3291H28.4914C29.342 17.3291 30.0315 16.6396 30.0315 15.789C30.0315 14.9384 29.342 14.2489 28.4914 14.2489H21.5611C20.7105 14.2489 20.021 14.9384 20.021 15.789C20.021 16.6396 20.7105 17.3291 21.5611 17.3291Z" fill="white"/>
<path d="M21.5611 24.2596H46.2025C47.0531 24.2596 47.7426 23.5701 47.7426 22.7195C47.7426 21.8689 47.0531 21.1794 46.2025 21.1794H21.5611C20.7105 21.1794 20.021 21.8689 20.021 22.7195C20.021 23.5701 20.7105 24.2596 21.5611 24.2596Z" fill="white"/>
<path d="M47.7425 29.6498C47.7425 28.7992 47.053 28.1097 46.2024 28.1097H21.5611C20.7105 28.1097 20.021 28.7992 20.021 29.6498C20.021 30.5004 20.7105 31.1899 21.5611 31.1899H46.2025C47.053 31.1899 47.7425 30.5004 47.7425 29.6498Z" fill="white"/>
</g>
<defs>
<clipPath id="clip0_76_296">
<rect width="67" height="67" fill="white"/>
</clipPath>
</defs>
</svg>
