<svg width="108" height="104" viewBox="0 0 108 104" fill="none" xmlns="http://www.w3.org/2000/svg">
<path d="M108 31.2432C108 30.8108 107.947 30.3604 107.842 29.8919C107.736 29.4234 107.613 28.991 107.473 28.5946C107.332 28.1982 107.139 27.8198 106.893 27.4595C106.646 27.0991 106.365 26.7568 106.049 26.4324C105.732 26.1081 105.398 25.8198 105.047 25.5676C104.695 25.3153 104.309 25.0991 103.887 24.9189C103.465 24.7387 103.043 24.5946 102.621 24.4865C102.199 24.3784 101.742 24.3243 101.25 24.3243H89.7539C92.9883 21.0811 94.6055 17.1532 94.6055 12.5405C94.6055 10.3784 94.2188 8.3964 93.4453 6.59459C92.6719 4.79279 91.2832 3.24324 89.2793 1.94595C87.2754 0.648649 84.7969 0 81.8438 0C80.6484 0 79.4355 0.126126 78.2051 0.378378C76.9746 0.630631 75.7969 1.00901 74.6719 1.51351C73.5469 2.01802 72.4395 2.57658 71.3496 3.18919C70.2598 3.8018 69.2051 4.5045 68.1855 5.2973C67.166 6.09009 66.1816 6.9009 65.2324 7.72973C64.2832 8.55856 63.3691 9.45946 62.4902 10.4324C61.6113 11.4054 60.7852 12.3423 60.0117 13.2432C59.2383 14.1441 58.4824 15.0811 57.7441 16.0541C57.0059 17.027 56.3555 17.9099 55.793 18.7027C55.2305 19.4955 54.7031 20.3243 54.2109 21.1892C52.7344 18.8829 51.1348 16.6667 49.4121 14.5405C47.6895 12.4144 45.5977 10.1802 43.1367 7.83784C40.6758 5.4955 37.9688 3.6036 35.0156 2.16216C32.0625 0.720721 29.1445 0 26.2617 0C23.3086 0 20.8301 0.648649 18.8262 1.94595C16.8223 3.24324 15.4336 4.79279 14.6602 6.59459C13.8867 8.3964 13.5 10.3784 13.5 12.5405C13.5 17.1532 15.1523 21.1171 18.457 24.4324H6.75C4.85156 24.4324 3.25195 25.0991 1.95117 26.4324C0.650391 27.7658 0 29.4054 0 31.3514V52H6.85547V97.0811C6.85547 98.955 7.50586 100.577 8.80664 101.946C10.1074 103.315 11.707 104 13.6055 104H94.5C96.3984 104 97.998 103.315 99.2988 101.946C100.6 100.577 101.25 98.955 101.25 97.0811V52H108V31.2432ZM81.8438 6.91892C85.8516 6.91892 87.8555 8.79279 87.8555 12.5405C87.8555 14.991 87.0469 17.1351 85.4297 18.973C83.8125 20.8108 81.791 22.1622 79.3652 23.027C76.9395 23.8919 74.3555 24.3243 71.6133 24.3243H60.2227C61.5586 22.3063 62.9824 20.3784 64.4941 18.5405C66.0059 16.7027 67.7109 14.8649 69.6094 13.027C71.5078 11.1892 73.5293 9.71171 75.6738 8.59459C77.8184 7.47748 79.875 6.91892 81.8438 6.91892ZM26.2617 6.91892C30.0586 6.91892 33.9082 8.68468 37.8105 12.2162C41.7129 15.7477 45.1758 19.7838 48.1992 24.3243H36.8086C32.5195 24.3243 28.6875 23.2432 25.3125 21.0811C21.9375 18.9189 20.25 16.036 20.25 12.4324C20.25 8.97297 22.043 7.17117 25.6289 7.02703C25.8398 6.95496 26.0508 6.91892 26.2617 6.91892ZM101.25 45.0811H57.375V31.2432H101.25V45.0811ZM6.75 31.2432H50.625V45.0811H6.75V31.2432ZM13.6055 52H50.625V97.0811H13.6055V52ZM94.5 97.0811H57.375V52H94.5V97.0811Z" fill="white"/>
</svg>
