<svg width="88" height="56" viewBox="0 0 88 56" fill="none" xmlns="http://www.w3.org/2000/svg">
<path d="M50.0513 27.3438C50.0938 23.8548 51.2647 20.5564 53.3576 17.5223C54.0432 16.5263 54.5861 15.309 54.8045 14.1194C56.2423 6.30217 62.6245 0.436958 70.2897 0.0250408C78.149 -0.399173 85.1469 4.60224 87.3157 12.3119C88.7292 17.3317 87.9436 22.0688 85.0498 26.3816C84.4158 27.3253 84.3461 27.934 85.0073 28.9054C88.9385 34.6783 88.9537 42.0806 85.1378 47.832C81.2855 53.6388 74.4635 56.4147 67.6598 54.9422C61.1503 53.5343 56.0148 48.0964 54.8773 41.2905C54.6529 39.9411 54.2191 38.816 53.3728 37.7185C51.0887 34.7583 50.0422 31.3215 50.0513 27.3438ZM80.3785 27.6327C80.3603 19.9815 74.1996 13.8089 66.6163 13.8489C59.1513 13.8857 53.0634 20.1291 53.0907 27.7188C53.118 35.3208 59.212 41.4934 66.7043 41.5027C74.2663 41.5149 80.3967 35.2993 80.3785 27.6327ZM58.4203 12.9482C63.4192 10.3845 68.3453 9.98483 73.3503 12.1766C78.3371 14.3591 81.3795 18.3123 83.0175 23.5689C85.6565 19.9385 85.5078 13.8335 82.8052 9.51451C79.8598 4.80513 74.2118 2.26599 68.9732 3.28964C63.7559 4.31021 59.2696 8.31257 58.4203 12.9482ZM58.3808 42.4033C59.4546 47.3402 64.0835 51.3149 69.4464 52.1541C74.6364 52.9687 80.2177 50.2175 82.9932 45.5542C85.5928 41.186 85.4896 35.0872 82.975 31.7826C81.4007 37.0945 78.2946 40.9985 73.3139 43.1872C68.315 45.3851 63.3858 44.9363 58.3808 42.4033Z" fill="white" fill-opacity="0.2"/>
<path d="M3.08927 23.1941C3.08927 26.1728 3.08927 29.1823 3.08927 32.284C3.611 32.4069 4.09937 32.5115 4.58167 32.6406C9.99009 34.1038 13.4602 37.5651 14.7888 43.0799C15.0709 44.2542 15.4622 44.6138 16.6634 44.6108C27.8837 44.5585 39.107 44.5739 50.3272 44.5769C52.2959 44.5769 53.1786 45.078 53.039 46.1846C52.8297 47.8692 51.5042 47.654 50.3515 47.654C34.5297 47.6602 18.7109 47.6632 2.88907 47.6632C0.234914 47.6632 0.00134814 47.4327 0.00134814 44.8075C0.00134814 33.283 -0.00168518 21.7555 0.00134814 10.231C0.00134814 8.07307 0.35018 7.69804 2.43711 7.69804C18.5623 7.69189 34.6844 7.69804 50.8095 7.69189C51.9046 7.69189 52.9875 7.81793 53.0208 9.17357C53.0572 10.6399 51.9258 10.7782 50.7762 10.7782C39.5559 10.7721 28.3326 10.8028 17.1123 10.7444C15.6927 10.7382 15.0952 11.0149 14.7039 12.5703C13.351 17.9314 9.86875 21.2975 4.5756 22.7115C4.1843 22.816 3.78997 22.8959 3.39867 23.0005C3.30767 23.0251 3.23184 23.105 3.08927 23.1941ZM3.10141 19.6867C7.50579 19.4008 11.7858 15.0173 11.7979 10.8981C8.90719 10.8981 6.01946 10.8981 3.10141 10.8981C3.10141 13.886 3.10141 16.7418 3.10141 19.6867ZM11.7858 44.5001C11.8434 40.3502 7.13876 35.5978 3.12567 35.7361C3.12567 38.6287 3.12567 41.5183 3.12567 44.5001C6.0771 44.5001 8.93146 44.5001 11.7858 44.5001Z" fill="white" fill-opacity="0.2"/>
<path d="M42.4738 27.7098C42.4071 30.8546 41.4455 33.6427 39.213 35.8929C35.8793 39.2497 31.0472 39.2897 27.6438 36.0159C23.3911 31.9274 23.1121 24.3868 27.0493 19.9571C31.0017 15.5121 37.1928 15.9978 40.5112 21.033C41.8338 23.0435 42.492 25.2752 42.4738 27.7098ZM39.9167 27.716C39.1311 25.7978 38.673 23.8581 37.6356 22.3241C35.482 19.1333 31.3354 19.2378 29.024 22.3241C26.7065 25.4166 26.7156 30 29.0513 33.0648C31.3839 36.1327 35.5123 36.1972 37.666 32.9972C38.673 31.497 39.1311 29.6127 39.9167 27.716Z" fill="white" fill-opacity="0.2"/>
<path d="M65.1361 19.8834C65.3302 18.706 64.8843 17.0461 66.6467 16.9815C68.5182 16.9139 68.136 18.6476 68.3939 19.9971C69.3129 19.9971 70.2108 19.9756 71.1056 20.0033C72.1066 20.0309 72.9135 20.572 72.6981 21.5741C72.5738 22.1551 71.7184 22.9267 71.1269 22.9881C69.3251 23.1756 67.496 23.0773 65.676 23.0619C64.6416 23.0527 63.7832 23.3878 63.7529 24.5313C63.7195 25.7578 64.5931 26.1605 65.6972 26.1421C66.4556 26.1298 67.2139 26.1175 67.9722 26.1359C70.5505 26.1943 72.4464 27.7897 72.7618 30.1536C73.0743 32.4991 71.6274 34.5556 69.1491 35.278C68.9095 35.3487 68.6669 35.3979 68.3848 35.4686C68.0845 36.609 68.591 38.3981 66.7043 38.3735C64.9268 38.352 65.312 36.7166 65.1118 35.361C64.2685 35.361 63.4283 35.3548 62.5881 35.361C61.5446 35.3702 60.7317 34.9767 60.7165 33.8301C60.7014 32.6774 61.4991 32.2778 62.5547 32.2839C64.2716 32.2931 65.9915 32.2685 67.7083 32.2901C68.8003 32.3054 69.7073 31.9857 69.7073 30.7408C69.7073 29.4804 68.776 29.1915 67.6962 29.2161C66.9379 29.2345 66.1795 29.2222 65.4212 29.2068C62.8823 29.1484 60.9562 27.4793 60.6983 25.1246C60.4405 22.776 61.8419 20.7871 64.2382 20.0986C64.5203 20.0186 64.8115 19.9633 65.1361 19.8834Z" fill="white" fill-opacity="0.2"/>
<path d="M13.2176 55.0715H2.4281C1.23601 55.0715 0.259277 54.0816 0.259277 52.8736C0.259277 51.6655 1.23601 50.6757 2.4281 50.6757H13.2176C14.4097 50.6757 15.3865 51.6655 15.3865 52.8736C15.3865 54.0816 14.4097 55.0715 13.2176 55.0715Z" fill="white" fill-opacity="0.2"/>
<path d="M20.2122 55.0687C21.338 55.0687 22.2506 54.1438 22.2506 53.0029C22.2506 51.862 21.338 50.9371 20.2122 50.9371C19.0864 50.9371 18.1738 51.862 18.1738 53.0029C18.1738 54.1438 19.0864 55.0687 20.2122 55.0687Z" fill="white" fill-opacity="0.2"/>
<path d="M39.7045 0.286377H50.494C51.6861 0.286377 52.6628 1.2762 52.6628 2.48428C52.6628 3.69236 51.6861 4.68219 50.494 4.68219H39.7045C38.5124 4.68219 37.5356 3.69236 37.5356 2.48428C37.5356 1.2762 38.5124 0.286377 39.7045 0.286377Z" fill="white" fill-opacity="0.2"/>
<path d="M32.7098 4.42102C33.8356 4.42102 34.7482 3.49613 34.7482 2.35523C34.7482 1.21432 33.8356 0.289429 32.7098 0.289429C31.584 0.289429 30.6714 1.21432 30.6714 2.35523C30.6714 3.49613 31.584 4.42102 32.7098 4.42102Z" fill="white" fill-opacity="0.2"/>
</svg>
